<svg width="40" height="14" viewBox="0 0 40 14" fill="none" xmlns="http://www.w3.org/2000/svg">
<path d="M11.9759 2.92773L21.0051 7.11752L19.9153 1.76277L36.4277 13.6277H14.3051L11.9767 2.92773H11.9759Z" fill="#FF9900"/>
<path fill-rule="evenodd" clip-rule="evenodd" d="M30.6642 13.6277C30.6663 13.3025 30.6473 12.9775 30.6073 12.6547C30.3095 10.2058 28.9139 8.36131 27.4905 8.53503C26.0672 8.70876 25.1562 10.8343 25.454 13.2839C25.4723 13.4 25.492 13.5146 25.5139 13.627H30.6642V13.6277Z" fill="white"/>
<path fill-rule="evenodd" clip-rule="evenodd" d="M27.8723 13.6277C27.8846 13.4154 27.8777 13.2024 27.8518 12.9912C27.7124 11.8482 27.0635 10.9876 26.4015 11.0679C25.7402 11.1482 25.3161 12.1409 25.4555 13.2832C25.4679 13.4022 25.4847 13.5168 25.5073 13.6277H27.8723V13.6277Z" fill="black"/>
<path fill-rule="evenodd" clip-rule="evenodd" d="M25.2613 13.6277C25.2524 13.5129 25.241 13.3983 25.227 13.2839C24.9285 10.835 23.5336 8.99051 22.1102 9.16423C20.7591 9.32846 19.8153 11.3285 19.9796 13.6277H25.2613V13.6277Z" fill="white"/>
<path fill-rule="evenodd" clip-rule="evenodd" d="M22.4248 13.6277C22.4276 13.4638 22.4191 13.2999 22.3993 13.1372C22.2598 11.9942 21.6109 11.1336 20.9489 11.2139C20.3109 11.292 19.8489 12.5153 19.9416 13.6277H22.4248V13.6277Z" fill="black"/>
<path d="M11.7803 2.88175L20.8912 7.10876L19.7912 1.70584L36.4525 13.6788H14.1299L11.7795 2.88175H11.7803Z" fill="#FF9900"/>
<path fill-rule="evenodd" clip-rule="evenodd" d="M30.6387 13.6788C30.6409 13.3599 30.6226 13.0314 30.5817 12.6971C30.2803 10.2255 28.8723 8.36496 27.4365 8.54015C26.0007 8.71533 25.0803 10.8606 25.3817 13.3314C25.3993 13.4482 25.419 13.5642 25.4416 13.6781H30.6387V13.6788Z" fill="white"/>
<path fill-rule="evenodd" clip-rule="evenodd" d="M27.8211 13.6788C27.8336 13.4744 27.8277 13.2584 27.8007 13.0365C27.6598 11.8832 27.0051 11.0146 26.3372 11.0956C25.6693 11.1774 25.2423 12.1781 25.3825 13.3314C25.3949 13.4511 25.4124 13.5671 25.435 13.6788H27.8211Z" fill="black"/>
<path fill-rule="evenodd" clip-rule="evenodd" d="M25.1869 13.6788C25.178 13.5628 25.1666 13.4469 25.1525 13.3314C24.8518 10.8606 23.4431 8.99927 22.0073 9.17445C20.6438 9.34087 19.692 11.3591 19.8577 13.6781H25.1869V13.6788Z" fill="white"/>
<path fill-rule="evenodd" clip-rule="evenodd" d="M22.3248 13.6788C22.3275 13.5135 22.3187 13.3481 22.2985 13.1839C22.1584 12.0307 21.5029 11.162 20.835 11.2431C20.1912 11.3219 19.7255 12.5569 19.8197 13.6788H22.3248Z" fill="black"/>
<path d="M39.073 8.85548L26.7759 13.6788H36.6847L39.073 8.85548V8.85548Z" fill="#FF9900"/>
<path d="M39.073 8.85548L36.008 10.0584L37.8891 11.2547L39.073 8.85548V8.85548Z" fill="black"/>
<path d="M14.0708 13.7292L25.4496 5.92847L9.77665 0.13139L2.90512 9.64964L8.63067 8.21898L14.0701 13.7292H14.0708Z" fill="#CC0000"/>
<path d="M12.5161 13.6241C12.2848 13.3873 12.157 13.0684 12.1608 12.7374C12.1646 12.4064 12.2998 12.0905 12.5365 11.8591L21.1664 3.43066C21.2837 3.31611 21.4224 3.22579 21.5746 3.16484C21.7268 3.10389 21.8895 3.07352 22.0534 3.07545C22.2173 3.07738 22.3793 3.11158 22.53 3.1761C22.6807 3.24061 22.8172 3.33418 22.9318 3.45146C23.0463 3.56874 23.1366 3.70743 23.1976 3.85962C23.2585 4.01181 23.2889 4.17451 23.287 4.33844C23.285 4.50236 23.2508 4.6643 23.1863 4.81501C23.1218 4.96572 23.0282 5.10224 22.911 5.21679L14.2803 13.6445C14.0435 13.8758 13.7246 14.0036 13.3936 13.9998C13.0626 13.996 12.7467 13.8608 12.5153 13.6241H12.5161Z" fill="#E3E3E3"/>
<path d="M20.8905 7.18029L19.7956 1.70584L26.4511 6.50146L20.4394 9.72117L14.1299 13.7504L20.8913 7.18102L20.8905 7.18029Z" fill="#FF9900"/>
<path d="M3.47884 10.2219C3.47884 10.5636 3.3431 10.8913 3.10149 11.1329C2.85989 11.3745 2.5322 11.5102 2.19052 11.5102C1.84883 11.5102 1.52114 11.3745 1.27953 11.1329C1.03793 10.8913 0.902191 10.5636 0.902191 10.2219C0.902191 9.88021 1.03793 9.55252 1.27953 9.31091C1.52114 9.0693 1.84883 8.93357 2.19052 8.93357C2.5322 8.93357 2.85989 9.0693 3.10149 9.31091C3.3431 9.55252 3.47884 9.88021 3.47884 10.2219Z" fill="#E3E3E3"/>
</svg>
